<svg xmlns="http://www.w3.org/2000/svg" viewBox="0 0 1440 320"><path fill="#FF5F6D" fill-opacity="1" d="M0,128L26.7,133.3C53.3,139,107,149,160,160C213.3,171,267,181,320,160C373.3,139,427,85,480,80C533.3,75,587,117,640,122.7C693.3,128,747,96,800,85.3C853.3,75,907,85,960,85.3C1013.3,85,1067,75,1120,80C1173.3,85,1227,107,1280,133.3C1333.3,160,1387,192,1413,208L1440,224L1440,0L1413.3,0C1386.7,0,1333,0,1280,0C1226.7,0,1173,0,1120,0C1066.7,0,1013,0,960,0C906.7,0,853,0,800,0C746.7,0,693,0,640,0C586.7,0,533,0,480,0C426.7,0,373,0,320,0C266.7,0,213,0,160,0C106.7,0,53,0,27,0L0,0Z"></path></svg>